<?xml version="1.0" encoding="UTF-8" standalone="no"?>
<!DOCTYPE svg PUBLIC "-//W3C//DTD SVG 1.1//EN"
 "http://www.w3.org/Graphics/SVG/1.1/DTD/svg11.dtd">
<!-- Generated by graphviz version 2.43.0 (0)
 -->
<!-- Title: binaryTree Pages: 1 -->
<svg width="490pt" height="404pt"
 viewBox="0.00 0.00 490.00 404.00" xmlns="http://www.w3.org/2000/svg" xmlns:xlink="http://www.w3.org/1999/xlink">
<g id="graph0" class="graph" transform="scale(1 1) rotate(0) translate(4 400)">
<title>binaryTree</title>
<polygon fill="white" stroke="transparent" points="-4,4 -4,-400 486,-400 486,4 -4,4"/>
<!-- root -->
<g id="node1" class="node">
<title>root</title>
<text text-anchor="middle" x="231" y="-374.3" font-family="Times,serif" font-size="14.00">(expmod base exp m)</text>
</g>
<!-- iszero -->
<g id="node2" class="node">
<title>iszero</title>
<text text-anchor="middle" x="104" y="-302.3" font-family="Times,serif" font-size="14.00">(= 0 exp)</text>
</g>
<!-- root&#45;&gt;iszero -->
<g id="edge1" class="edge">
<title>root&#45;&gt;iszero</title>
<path fill="none" stroke="black" d="M199.93,-359.88C183.17,-350.64 162.29,-339.13 144.3,-329.21"/>
<polygon fill="black" stroke="black" points="145.63,-325.95 135.19,-324.19 142.26,-332.08 145.63,-325.95"/>
</g>
<!-- even -->
<g id="node4" class="node">
<title>even</title>
<text text-anchor="middle" x="231" y="-302.3" font-family="Times,serif" font-size="14.00">(even? exp)</text>
</g>
<!-- root&#45;&gt;even -->
<g id="edge3" class="edge">
<title>root&#45;&gt;even</title>
<path fill="none" stroke="black" d="M231,-359.7C231,-351.98 231,-342.71 231,-334.11"/>
<polygon fill="black" stroke="black" points="234.5,-334.1 231,-324.1 227.5,-334.1 234.5,-334.1"/>
</g>
<!-- else -->
<g id="node11" class="node">
<title>else</title>
<text text-anchor="middle" x="331" y="-302.3" font-family="Times,serif" font-size="14.00">else</text>
</g>
<!-- root&#45;&gt;else -->
<g id="edge4" class="edge">
<title>root&#45;&gt;else</title>
<path fill="none" stroke="black" d="M255.46,-359.88C268.3,-350.89 284.2,-339.76 298.09,-330.03"/>
<polygon fill="black" stroke="black" points="300.26,-332.79 306.44,-324.19 296.24,-327.06 300.26,-332.79"/>
</g>
<!-- y -->
<g id="node3" class="node">
<title>y</title>
<text text-anchor="middle" x="85" y="-230.3" font-family="Times,serif" font-size="14.00" fill="green"> &#160;&#160;&#160;&#160;&#160;&#160;&#160;&#160;&#160;&#160;&#160;&#160;&#160;&#160;&#160;1 &#160;&#160;&#160;&#160;&#160;&#160;&#160;&#160;&#160;&#160;&#160;&#160;&#160;&#160;&#160;</text>
</g>
<!-- iszero&#45;&gt;y -->
<g id="edge2" class="edge">
<title>iszero&#45;&gt;y</title>
<path fill="none" stroke="black" d="M99.3,-287.7C97.19,-279.9 94.64,-270.51 92.28,-261.83"/>
<polygon fill="black" stroke="black" points="95.64,-260.84 89.64,-252.1 88.88,-262.67 95.64,-260.84"/>
</g>
<!-- getr -->
<g id="node7" class="node">
<title>getr</title>
<text text-anchor="middle" x="231" y="-230.3" font-family="Times,serif" font-size="14.00">get&#45;result</text>
</g>
<!-- even&#45;&gt;getr -->
<g id="edge7" class="edge">
<title>even&#45;&gt;getr</title>
<path fill="none" stroke="black" d="M231,-287.7C231,-279.98 231,-270.71 231,-262.11"/>
<polygon fill="black" stroke="black" points="234.5,-262.1 231,-252.1 227.5,-262.1 234.5,-262.1"/>
</g>
<!-- elr -->
<g id="node5" class="node">
<title>elr</title>
<text text-anchor="middle" x="367" y="-230.3" font-family="Times,serif" font-size="14.00">remainder</text>
</g>
<!-- elm -->
<g id="node6" class="node">
<title>elm</title>
<text text-anchor="middle" x="381" y="-158.3" font-family="Times,serif" font-size="14.00" fill="green">(expmod base (&#45; exp 1) m)</text>
</g>
<!-- elr&#45;&gt;elm -->
<g id="edge6" class="edge">
<title>elr&#45;&gt;elm</title>
<path fill="none" stroke="black" d="M370.46,-215.7C372,-207.98 373.86,-198.71 375.58,-190.11"/>
<polygon fill="black" stroke="black" points="379.05,-190.6 377.58,-180.1 372.19,-189.22 379.05,-190.6"/>
</g>
<!-- gr -->
<g id="node8" class="node">
<title>gr</title>
<text text-anchor="middle" x="216" y="-158.3" font-family="Times,serif" font-size="14.00" fill="purple">remainder</text>
</g>
<!-- getr&#45;&gt;gr -->
<g id="edge8" class="edge">
<title>getr&#45;&gt;gr</title>
<path fill="none" stroke="black" d="M227.29,-215.7C225.64,-207.98 223.65,-198.71 221.81,-190.11"/>
<polygon fill="black" stroke="black" points="225.18,-189.15 219.67,-180.1 218.34,-190.62 225.18,-189.15"/>
</g>
<!-- gs -->
<g id="node9" class="node">
<title>gs</title>
<text text-anchor="middle" x="216" y="-86.3" font-family="Times,serif" font-size="14.00" fill="purple">square</text>
</g>
<!-- gr&#45;&gt;gs -->
<g id="edge9" class="edge">
<title>gr&#45;&gt;gs</title>
<path fill="none" stroke="purple" d="M216,-143.7C216,-135.98 216,-126.71 216,-118.11"/>
<polygon fill="purple" stroke="purple" points="219.5,-118.1 216,-108.1 212.5,-118.1 219.5,-118.1"/>
</g>
<!-- gm -->
<g id="node10" class="node">
<title>gm</title>
<text text-anchor="middle" x="216" y="-14.3" font-family="Times,serif" font-size="14.00" fill="purple">(expmod base (/ exp 2) m)</text>
</g>
<!-- gs&#45;&gt;gm -->
<g id="edge10" class="edge">
<title>gs&#45;&gt;gm</title>
<path fill="none" stroke="purple" d="M216,-71.7C216,-63.98 216,-54.71 216,-46.11"/>
<polygon fill="purple" stroke="purple" points="219.5,-46.1 216,-36.1 212.5,-46.1 219.5,-46.1"/>
</g>
<!-- else&#45;&gt;elr -->
<g id="edge5" class="edge">
<title>else&#45;&gt;elr</title>
<path fill="none" stroke="black" d="M339.9,-287.7C344,-279.73 348.95,-270.1 353.49,-261.26"/>
<polygon fill="black" stroke="black" points="356.74,-262.6 358.2,-252.1 350.52,-259.4 356.74,-262.6"/>
</g>
</g>
</svg>
