<?xml version="1.0" encoding="UTF-8" standalone="no"?>
<!DOCTYPE svg PUBLIC "-//W3C//DTD SVG 1.1//EN"
 "http://www.w3.org/Graphics/SVG/1.1/DTD/svg11.dtd">
<!-- Generated by graphviz version 2.43.0 (0)
 -->
<!-- Title: binaryTree Pages: 1 -->
<svg width="1293pt" height="620pt"
 viewBox="0.00 0.00 1293.00 620.00" xmlns="http://www.w3.org/2000/svg" xmlns:xlink="http://www.w3.org/1999/xlink">
<g id="graph0" class="graph" transform="scale(1 1) rotate(0) translate(4 616)">
<title>binaryTree</title>
<polygon fill="white" stroke="transparent" points="-4,4 -4,-616 1289,-616 1289,4 -4,4"/>
<!-- root -->
<g id="node1" class="node">
<title>root</title>
<text text-anchor="middle" x="571" y="-590.3" font-family="Times,serif" font-size="14.00">(expmod base exp m)</text>
</g>
<!-- iszero -->
<g id="node2" class="node">
<title>iszero</title>
<text text-anchor="middle" x="322" y="-518.3" font-family="Times,serif" font-size="14.00">(= 0 exp)</text>
</g>
<!-- root&#45;&gt;iszero -->
<g id="edge1" class="edge">
<title>root&#45;&gt;iszero</title>
<path fill="none" stroke="black" d="M510.41,-575.97C468.47,-564.18 413.26,-548.66 373.46,-537.47"/>
<polygon fill="black" stroke="black" points="374.27,-534.06 363.69,-534.72 372.37,-540.8 374.27,-534.06"/>
</g>
<!-- even -->
<g id="node4" class="node">
<title>even</title>
<text text-anchor="middle" x="571" y="-518.3" font-family="Times,serif" font-size="14.00">(even? exp)</text>
</g>
<!-- root&#45;&gt;even -->
<g id="edge3" class="edge">
<title>root&#45;&gt;even</title>
<path fill="none" stroke="black" d="M571,-575.7C571,-567.98 571,-558.71 571,-550.11"/>
<polygon fill="black" stroke="black" points="574.5,-550.1 571,-540.1 567.5,-550.1 574.5,-550.1"/>
</g>
<!-- else -->
<g id="node39" class="node">
<title>else</title>
<text text-anchor="middle" x="793" y="-518.3" font-family="Times,serif" font-size="14.00">else</text>
</g>
<!-- root&#45;&gt;else -->
<g id="edge4" class="edge">
<title>root&#45;&gt;else</title>
<path fill="none" stroke="black" d="M625.02,-575.97C665.73,-563.13 720.47,-545.87 756.23,-534.59"/>
<polygon fill="black" stroke="black" points="757.3,-537.93 765.78,-531.58 755.19,-531.25 757.3,-537.93"/>
</g>
<!-- y -->
<g id="node3" class="node">
<title>y</title>
<text text-anchor="middle" x="182" y="-446.3" font-family="Times,serif" font-size="14.00" fill="green"> &#160;&#160;&#160;&#160;&#160;&#160;&#160;&#160;&#160;&#160;&#160;&#160;&#160;&#160;&#160;1 &#160;&#160;&#160;&#160;&#160;&#160;&#160;&#160;&#160;&#160;&#160;&#160;&#160;&#160;&#160;</text>
</g>
<!-- iszero&#45;&gt;y -->
<g id="edge2" class="edge">
<title>iszero&#45;&gt;y</title>
<path fill="none" stroke="black" d="M287.75,-503.88C268.94,-494.47 245.42,-482.71 225.33,-472.67"/>
<polygon fill="black" stroke="black" points="226.89,-469.53 216.38,-468.19 223.76,-475.79 226.89,-469.53"/>
</g>
<!-- b1 -->
<g id="node5" class="node">
<title>b1</title>
<text text-anchor="middle" x="351" y="-446.3" font-family="Times,serif" font-size="14.00">(= remainder 0)</text>
</g>
<!-- even&#45;&gt;b1 -->
<g id="edge7" class="edge">
<title>even&#45;&gt;b1</title>
<path fill="none" stroke="black" d="M521.9,-505.38C490.2,-495.29 448.66,-482.07 414.46,-471.19"/>
<polygon fill="black" stroke="black" points="415.16,-467.74 404.57,-468.04 413.04,-474.41 415.16,-467.74"/>
</g>
<!-- b1rn -->
<g id="node9" class="node">
<title>b1rn</title>
<text text-anchor="middle" x="480" y="-446.3" font-family="Times,serif" font-size="14.00" fill="red">remainder</text>
</g>
<!-- even&#45;&gt;b1rn -->
<g id="edge15" class="edge">
<title>even&#45;&gt;b1rn</title>
<path fill="none" stroke="black" d="M548.51,-503.7C537.04,-494.88 522.94,-484.03 510.52,-474.47"/>
<polygon fill="black" stroke="black" points="512.3,-471.43 502.24,-468.1 508.03,-476.98 512.3,-471.43"/>
</g>
<!-- or -->
<g id="node20" class="node">
<title>or</title>
<text text-anchor="middle" x="571" y="-446.3" font-family="Times,serif" font-size="14.00">or</text>
</g>
<!-- even&#45;&gt;or -->
<g id="edge8" class="edge">
<title>even&#45;&gt;or</title>
<path fill="none" stroke="black" d="M571,-503.7C571,-495.98 571,-486.71 571,-478.11"/>
<polygon fill="black" stroke="black" points="574.5,-478.1 571,-468.1 567.5,-478.1 574.5,-478.1"/>
</g>
<!-- bor -->
<g id="node21" class="node">
<title>bor</title>
<text text-anchor="middle" x="684" y="-446.3" font-family="Times,serif" font-size="14.00" fill="red">remainder</text>
</g>
<!-- even&#45;&gt;bor -->
<g id="edge21" class="edge">
<title>even&#45;&gt;bor</title>
<path fill="none" stroke="black" d="M598.64,-503.88C613.42,-494.72 631.79,-483.34 647.7,-473.48"/>
<polygon fill="black" stroke="black" points="649.59,-476.43 656.25,-468.19 645.91,-470.48 649.59,-476.43"/>
</g>
<!-- belse -->
<g id="node24" class="node">
<title>belse</title>
<text text-anchor="middle" x="888" y="-446.3" font-family="Times,serif" font-size="14.00">else</text>
</g>
<!-- even&#45;&gt;belse -->
<g id="edge9" class="edge">
<title>even&#45;&gt;belse</title>
<path fill="none" stroke="black" d="M620.18,-510.14C683.87,-496.08 793.46,-471.88 850.71,-459.23"/>
<polygon fill="black" stroke="black" points="851.76,-462.59 860.77,-457.01 850.25,-455.75 851.76,-462.59"/>
</g>
<!-- b1r -->
<g id="node6" class="node">
<title>b1r</title>
<text text-anchor="middle" x="146" y="-374.3" font-family="Times,serif" font-size="14.00" fill="blue">remainder</text>
</g>
<!-- b1&#45;&gt;b1r -->
<g id="edge12" class="edge">
<title>b1&#45;&gt;b1r</title>
<path fill="none" stroke="black" d="M301.11,-431.97C270.96,-421.67 232.46,-408.52 201.36,-397.91"/>
<polygon fill="black" stroke="black" points="202.14,-394.47 191.55,-394.55 199.88,-401.1 202.14,-394.47"/>
</g>
<!-- b1s -->
<g id="node7" class="node">
<title>b1s</title>
<text text-anchor="middle" x="101" y="-302.3" font-family="Times,serif" font-size="14.00" fill="blue">square</text>
</g>
<!-- b1r&#45;&gt;b1s -->
<g id="edge13" class="edge">
<title>b1r&#45;&gt;b1s</title>
<path fill="none" stroke="blue" d="M134.88,-359.7C129.64,-351.56 123.3,-341.69 117.52,-332.7"/>
<polygon fill="blue" stroke="blue" points="120.35,-330.62 112,-324.1 114.46,-334.41 120.35,-330.62"/>
</g>
<!-- b1m -->
<g id="node8" class="node">
<title>b1m</title>
<text text-anchor="middle" x="101" y="-230.3" font-family="Times,serif" font-size="14.00" fill="blue">(expmod base (/ exp 2) m)</text>
</g>
<!-- b1s&#45;&gt;b1m -->
<g id="edge14" class="edge">
<title>b1s&#45;&gt;b1m</title>
<path fill="none" stroke="blue" d="M101,-287.7C101,-279.98 101,-270.71 101,-262.11"/>
<polygon fill="blue" stroke="blue" points="104.5,-262.1 101,-252.1 97.5,-262.1 104.5,-262.1"/>
</g>
<!-- b1sn -->
<g id="node10" class="node">
<title>b1sn</title>
<text text-anchor="middle" x="270" y="-374.3" font-family="Times,serif" font-size="14.00" fill="red">square</text>
</g>
<!-- b1rn&#45;&gt;b1sn -->
<g id="edge16" class="edge">
<title>b1rn&#45;&gt;b1sn</title>
<path fill="none" stroke="red" d="M434.43,-433.81C398.16,-421.72 347.77,-404.92 312.36,-393.12"/>
<polygon fill="red" stroke="red" points="313.39,-389.77 302.79,-389.93 311.17,-396.41 313.39,-389.77"/>
</g>
<!-- b1mn -->
<g id="node11" class="node">
<title>b1mn</title>
<text text-anchor="middle" x="253" y="-302.3" font-family="Times,serif" font-size="14.00" fill="red">(expmod base (/ exp 2) m)</text>
</g>
<!-- b1sn&#45;&gt;b1mn -->
<g id="edge17" class="edge">
<title>b1sn&#45;&gt;b1mn</title>
<path fill="none" stroke="red" d="M265.8,-359.7C263.9,-351.9 261.62,-342.51 259.52,-333.83"/>
<polygon fill="red" stroke="red" points="262.92,-333 257.15,-324.1 256.11,-334.65 262.92,-333"/>
</g>
<!-- b2 -->
<g id="node12" class="node">
<title>b2</title>
<text text-anchor="middle" x="403" y="-374.3" font-family="Times,serif" font-size="14.00">(= remainder 1)</text>
</g>
<!-- b2r -->
<g id="node13" class="node">
<title>b2r</title>
<text text-anchor="middle" x="418" y="-302.3" font-family="Times,serif" font-size="14.00" fill="blue">remainder</text>
</g>
<!-- b2&#45;&gt;b2r -->
<g id="edge18" class="edge">
<title>b2&#45;&gt;b2r</title>
<path fill="none" stroke="black" d="M406.71,-359.7C408.36,-351.98 410.35,-342.71 412.19,-334.11"/>
<polygon fill="black" stroke="black" points="415.66,-334.62 414.33,-324.1 408.82,-333.15 415.66,-334.62"/>
</g>
<!-- b2s -->
<g id="node14" class="node">
<title>b2s</title>
<text text-anchor="middle" x="370" y="-230.3" font-family="Times,serif" font-size="14.00" fill="blue">square</text>
</g>
<!-- b2r&#45;&gt;b2s -->
<g id="edge19" class="edge">
<title>b2r&#45;&gt;b2s</title>
<path fill="none" stroke="blue" d="M406.13,-287.7C400.5,-279.47 393.65,-269.48 387.43,-260.42"/>
<polygon fill="blue" stroke="blue" points="390.27,-258.37 381.73,-252.1 384.5,-262.33 390.27,-258.37"/>
</g>
<!-- b2m -->
<g id="node15" class="node">
<title>b2m</title>
<text text-anchor="middle" x="357" y="-158.3" font-family="Times,serif" font-size="14.00" fill="blue">(expmod base (/ exp 2) m)</text>
</g>
<!-- b2s&#45;&gt;b2m -->
<g id="edge20" class="edge">
<title>b2s&#45;&gt;b2m</title>
<path fill="none" stroke="blue" d="M366.79,-215.7C365.35,-207.98 363.63,-198.71 362.04,-190.11"/>
<polygon fill="blue" stroke="blue" points="365.44,-189.3 360.18,-180.1 358.56,-190.58 365.44,-189.3"/>
</g>
<!-- b3 -->
<g id="node16" class="node">
<title>b3</title>
<text text-anchor="middle" x="571" y="-374.3" font-family="Times,serif" font-size="14.00">(= remainder (&#45; m 1))</text>
</g>
<!-- b3r -->
<g id="node17" class="node">
<title>b3r</title>
<text text-anchor="middle" x="541" y="-302.3" font-family="Times,serif" font-size="14.00" fill="blue">remainder</text>
</g>
<!-- b3&#45;&gt;b3r -->
<g id="edge24" class="edge">
<title>b3&#45;&gt;b3r</title>
<path fill="none" stroke="black" d="M563.58,-359.7C560.21,-351.81 556.13,-342.3 552.38,-333.55"/>
<polygon fill="black" stroke="black" points="555.49,-331.92 548.33,-324.1 549.05,-334.67 555.49,-331.92"/>
</g>
<!-- b3s -->
<g id="node18" class="node">
<title>b3s</title>
<text text-anchor="middle" x="565" y="-230.3" font-family="Times,serif" font-size="14.00" fill="blue">square</text>
</g>
<!-- b3r&#45;&gt;b3s -->
<g id="edge25" class="edge">
<title>b3r&#45;&gt;b3s</title>
<path fill="none" stroke="blue" d="M546.93,-287.7C549.61,-279.9 552.83,-270.51 555.8,-261.83"/>
<polygon fill="blue" stroke="blue" points="559.2,-262.7 559.14,-252.1 552.58,-260.43 559.2,-262.7"/>
</g>
<!-- b3m -->
<g id="node19" class="node">
<title>b3m</title>
<text text-anchor="middle" x="577" y="-158.3" font-family="Times,serif" font-size="14.00" fill="blue">(expmod base (/ exp 2) m)</text>
</g>
<!-- b3s&#45;&gt;b3m -->
<g id="edge26" class="edge">
<title>b3s&#45;&gt;b3m</title>
<path fill="none" stroke="blue" d="M567.97,-215.7C569.29,-207.98 570.88,-198.71 572.35,-190.11"/>
<polygon fill="blue" stroke="blue" points="575.83,-190.55 574.07,-180.1 568.93,-189.37 575.83,-190.55"/>
</g>
<!-- or&#45;&gt;b2 -->
<g id="edge10" class="edge">
<title>or&#45;&gt;b2</title>
<path fill="none" stroke="black" d="M543.99,-436.41C540.63,-434.9 537.25,-433.4 534,-432 508.56,-421.02 480.07,-409.41 456.17,-399.87"/>
<polygon fill="black" stroke="black" points="457.16,-396.49 446.58,-396.05 454.57,-403 457.16,-396.49"/>
</g>
<!-- or&#45;&gt;b3 -->
<g id="edge11" class="edge">
<title>or&#45;&gt;b3</title>
<path fill="none" stroke="black" d="M571,-431.7C571,-423.98 571,-414.71 571,-406.11"/>
<polygon fill="black" stroke="black" points="574.5,-406.1 571,-396.1 567.5,-406.1 574.5,-406.1"/>
</g>
<!-- bos -->
<g id="node22" class="node">
<title>bos</title>
<text text-anchor="middle" x="706" y="-374.3" font-family="Times,serif" font-size="14.00" fill="red">square</text>
</g>
<!-- bor&#45;&gt;bos -->
<g id="edge22" class="edge">
<title>bor&#45;&gt;bos</title>
<path fill="none" stroke="red" d="M689.44,-431.7C691.89,-423.9 694.84,-414.51 697.57,-405.83"/>
<polygon fill="red" stroke="red" points="700.96,-406.69 700.62,-396.1 694.29,-404.59 700.96,-406.69"/>
</g>
<!-- bom -->
<g id="node23" class="node">
<title>bom</title>
<text text-anchor="middle" x="706" y="-302.3" font-family="Times,serif" font-size="14.00" fill="red">(expmod base (/ exp 2) m)</text>
</g>
<!-- bos&#45;&gt;bom -->
<g id="edge23" class="edge">
<title>bos&#45;&gt;bom</title>
<path fill="none" stroke="red" d="M706,-359.7C706,-351.98 706,-342.71 706,-334.11"/>
<polygon fill="red" stroke="red" points="709.5,-334.1 706,-324.1 702.5,-334.1 709.5,-334.1"/>
</g>
<!-- et -->
<g id="node25" class="node">
<title>et</title>
<text text-anchor="middle" x="830" y="-374.3" font-family="Times,serif" font-size="14.00">(= square 1)</text>
</g>
<!-- belse&#45;&gt;et -->
<g id="edge27" class="edge">
<title>belse&#45;&gt;et</title>
<path fill="none" stroke="black" d="M873.66,-431.7C866.71,-423.3 858.23,-413.07 850.6,-403.86"/>
<polygon fill="black" stroke="black" points="853.25,-401.57 844.17,-396.1 847.86,-406.04 853.25,-401.57"/>
</g>
<!-- bersnr -->
<g id="node26" class="node">
<title>bersnr</title>
<text text-anchor="middle" x="947" y="-374.3" font-family="Times,serif" font-size="14.00">remainder</text>
</g>
<!-- belse&#45;&gt;bersnr -->
<g id="edge33" class="edge">
<title>belse&#45;&gt;bersnr</title>
<path fill="none" stroke="black" d="M902.58,-431.7C909.66,-423.3 918.28,-413.07 926.05,-403.86"/>
<polygon fill="black" stroke="black" points="928.81,-406.01 932.58,-396.1 923.46,-401.49 928.81,-406.01"/>
</g>
<!-- bz -->
<g id="node38" class="node">
<title>bz</title>
<text text-anchor="middle" x="1038" y="-374.3" font-family="Times,serif" font-size="14.00" fill="green">0</text>
</g>
<!-- belse&#45;&gt;bz -->
<g id="edge38" class="edge">
<title>belse&#45;&gt;bz</title>
<path fill="none" stroke="black" d="M915.2,-436.41C936.41,-426.58 966.84,-412.45 1001.49,-396.23"/>
<polygon fill="black" stroke="black" points="1003.31,-399.24 1010.88,-391.83 1000.34,-392.9 1003.31,-399.24"/>
</g>
<!-- ersr -->
<g id="node31" class="node">
<title>ersr</title>
<text text-anchor="middle" x="871" y="-302.3" font-family="Times,serif" font-size="14.00">remainder</text>
</g>
<!-- et&#45;&gt;ersr -->
<g id="edge28" class="edge">
<title>et&#45;&gt;ersr</title>
<path fill="none" stroke="black" d="M840.13,-359.7C844.85,-351.64 850.56,-341.89 855.78,-332.98"/>
<polygon fill="black" stroke="black" points="858.95,-334.5 860.98,-324.1 852.91,-330.96 858.95,-334.5"/>
</g>
<!-- bersn -->
<g id="node27" class="node">
<title>bersn</title>
<text text-anchor="middle" x="967" y="-302.3" font-family="Times,serif" font-size="14.00" fill="orange">square</text>
</g>
<!-- bersnr&#45;&gt;bersn -->
<g id="edge34" class="edge">
<title>bersnr&#45;&gt;bersn</title>
<path fill="none" stroke="black" d="M951.94,-359.7C954.17,-351.9 956.85,-342.51 959.33,-333.83"/>
<polygon fill="black" stroke="black" points="962.73,-334.68 962.11,-324.1 956,-332.76 962.73,-334.68"/>
</g>
<!-- bern -->
<g id="node28" class="node">
<title>bern</title>
<text text-anchor="middle" x="974" y="-230.3" font-family="Times,serif" font-size="14.00" fill="red">remainder</text>
</g>
<!-- bersn&#45;&gt;bern -->
<g id="edge35" class="edge">
<title>bersn&#45;&gt;bern</title>
<path fill="none" stroke="black" d="M968.73,-287.7C969.5,-279.98 970.43,-270.71 971.29,-262.11"/>
<polygon fill="black" stroke="black" points="974.78,-262.4 972.29,-252.1 967.81,-261.71 974.78,-262.4"/>
</g>
<!-- besn -->
<g id="node29" class="node">
<title>besn</title>
<text text-anchor="middle" x="1002" y="-158.3" font-family="Times,serif" font-size="14.00" fill="red">square</text>
</g>
<!-- bern&#45;&gt;besn -->
<g id="edge36" class="edge">
<title>bern&#45;&gt;besn</title>
<path fill="none" stroke="red" d="M980.92,-215.7C984.07,-207.81 987.88,-198.3 991.38,-189.55"/>
<polygon fill="red" stroke="red" points="994.69,-190.69 995.16,-180.1 988.19,-188.09 994.69,-190.69"/>
</g>
<!-- bemn -->
<g id="node30" class="node">
<title>bemn</title>
<text text-anchor="middle" x="1009" y="-86.3" font-family="Times,serif" font-size="14.00" fill="red">(expmod base (/ exp 2) m)</text>
</g>
<!-- besn&#45;&gt;bemn -->
<g id="edge37" class="edge">
<title>besn&#45;&gt;bemn</title>
<path fill="none" stroke="red" d="M1003.73,-143.7C1004.5,-135.98 1005.43,-126.71 1006.29,-118.11"/>
<polygon fill="red" stroke="red" points="1009.78,-118.4 1007.29,-108.1 1002.81,-117.71 1009.78,-118.4"/>
</g>
<!-- ers -->
<g id="node32" class="node">
<title>ers</title>
<text text-anchor="middle" x="864" y="-230.3" font-family="Times,serif" font-size="14.00" fill="orange">square</text>
</g>
<!-- ersr&#45;&gt;ers -->
<g id="edge29" class="edge">
<title>ersr&#45;&gt;ers</title>
<path fill="none" stroke="black" d="M869.27,-287.7C868.5,-279.98 867.57,-270.71 866.71,-262.11"/>
<polygon fill="black" stroke="black" points="870.19,-261.71 865.71,-252.1 863.22,-262.4 870.19,-261.71"/>
</g>
<!-- er -->
<g id="node33" class="node">
<title>er</title>
<text text-anchor="middle" x="861" y="-158.3" font-family="Times,serif" font-size="14.00" fill="blue">remainder</text>
</g>
<!-- ers&#45;&gt;er -->
<g id="edge30" class="edge">
<title>ers&#45;&gt;er</title>
<path fill="none" stroke="black" d="M863.26,-215.7C862.93,-207.98 862.53,-198.71 862.16,-190.11"/>
<polygon fill="black" stroke="black" points="865.66,-189.95 861.73,-180.1 858.66,-190.25 865.66,-189.95"/>
</g>
<!-- es -->
<g id="node34" class="node">
<title>es</title>
<text text-anchor="middle" x="857" y="-86.3" font-family="Times,serif" font-size="14.00" fill="blue">square</text>
</g>
<!-- er&#45;&gt;es -->
<g id="edge31" class="edge">
<title>er&#45;&gt;es</title>
<path fill="none" stroke="blue" d="M860.01,-143.7C859.57,-135.98 859.04,-126.71 858.55,-118.11"/>
<polygon fill="blue" stroke="blue" points="862.04,-117.89 857.98,-108.1 855.05,-118.29 862.04,-117.89"/>
</g>
<!-- em -->
<g id="node35" class="node">
<title>em</title>
<text text-anchor="middle" x="857" y="-14.3" font-family="Times,serif" font-size="14.00" fill="blue">(expmod base (/ exp 2) m)</text>
</g>
<!-- es&#45;&gt;em -->
<g id="edge32" class="edge">
<title>es&#45;&gt;em</title>
<path fill="none" stroke="blue" d="M857,-71.7C857,-63.98 857,-54.71 857,-46.11"/>
<polygon fill="blue" stroke="blue" points="860.5,-46.1 857,-36.1 853.5,-46.1 860.5,-46.1"/>
</g>
<!-- elr -->
<g id="node36" class="node">
<title>elr</title>
<text text-anchor="middle" x="1110" y="-446.3" font-family="Times,serif" font-size="14.00">remainder</text>
</g>
<!-- elm -->
<g id="node37" class="node">
<title>elm</title>
<text text-anchor="middle" x="1184" y="-374.3" font-family="Times,serif" font-size="14.00" fill="green">(expmod base (&#45; exp 1) m)</text>
</g>
<!-- elr&#45;&gt;elm -->
<g id="edge6" class="edge">
<title>elr&#45;&gt;elm</title>
<path fill="none" stroke="black" d="M1128.29,-431.7C1137.43,-423.05 1148.64,-412.45 1158.6,-403.03"/>
<polygon fill="black" stroke="black" points="1161.06,-405.52 1165.92,-396.1 1156.25,-400.43 1161.06,-405.52"/>
</g>
<!-- else&#45;&gt;elr -->
<g id="edge5" class="edge">
<title>else&#45;&gt;elr</title>
<path fill="none" stroke="black" d="M820.03,-515.03C871.83,-503.59 986.03,-478.37 1054.65,-463.22"/>
<polygon fill="black" stroke="black" points="1055.42,-466.64 1064.43,-461.06 1053.91,-459.8 1055.42,-466.64"/>
</g>
</g>
</svg>
