<?xml version="1.0" encoding="UTF-8" standalone="no"?>
<!DOCTYPE svg PUBLIC "-//W3C//DTD SVG 1.1//EN"
 "http://www.w3.org/Graphics/SVG/1.1/DTD/svg11.dtd">
<!-- Generated by graphviz version 2.43.0 (0)
 -->
<!-- Title: binaryTree Pages: 1 -->
<svg width="570pt" height="404pt"
 viewBox="0.00 0.00 570.00 404.00" xmlns="http://www.w3.org/2000/svg" xmlns:xlink="http://www.w3.org/1999/xlink">
<g id="graph0" class="graph" transform="scale(1 1) rotate(0) translate(4 400)">
<title>binaryTree</title>
<polygon fill="white" stroke="transparent" points="-4,4 -4,-400 566,-400 566,4 -4,4"/>
<!-- root -->
<g id="node1" class="node">
<title>root</title>
<text text-anchor="middle" x="193" y="-374.3" font-family="Times,serif" font-size="14.00">(get&#45;result r)</text>
</g>
<!-- b1 -->
<g id="node2" class="node">
<title>b1</title>
<text text-anchor="middle" x="41" y="-302.3" font-family="Times,serif" font-size="14.00">(= r 0)</text>
</g>
<!-- root&#45;&gt;b1 -->
<g id="edge1" class="edge">
<title>root&#45;&gt;b1</title>
<path fill="none" stroke="black" d="M155.82,-359.88C133.57,-349.63 105.26,-336.59 82.31,-326.03"/>
<polygon fill="black" stroke="black" points="83.71,-322.82 73.17,-321.81 80.78,-329.18 83.71,-322.82"/>
</g>
<!-- b1nr -->
<g id="node4" class="node">
<title>b1nr</title>
<text text-anchor="middle" x="121" y="-302.3" font-family="Times,serif" font-size="14.00" fill="red">r</text>
</g>
<!-- root&#45;&gt;b1nr -->
<g id="edge3" class="edge">
<title>root&#45;&gt;b1nr</title>
<path fill="none" stroke="black" d="M175.2,-359.7C166.4,-351.14 155.62,-340.66 146,-331.3"/>
<polygon fill="black" stroke="black" points="148.2,-328.57 138.59,-324.1 143.32,-333.58 148.2,-328.57"/>
</g>
<!-- or -->
<g id="node5" class="node">
<title>or</title>
<text text-anchor="middle" x="193" y="-302.3" font-family="Times,serif" font-size="14.00">or</text>
</g>
<!-- root&#45;&gt;or -->
<g id="edge4" class="edge">
<title>root&#45;&gt;or</title>
<path fill="none" stroke="black" d="M193,-359.7C193,-351.98 193,-342.71 193,-334.11"/>
<polygon fill="black" stroke="black" points="196.5,-334.1 193,-324.1 189.5,-334.1 196.5,-334.1"/>
</g>
<!-- onr -->
<g id="node10" class="node">
<title>onr</title>
<text text-anchor="middle" x="265" y="-302.3" font-family="Times,serif" font-size="14.00" fill="red">r</text>
</g>
<!-- root&#45;&gt;onr -->
<g id="edge9" class="edge">
<title>root&#45;&gt;onr</title>
<path fill="none" stroke="black" d="M210.8,-359.7C219.6,-351.14 230.38,-340.66 240,-331.3"/>
<polygon fill="black" stroke="black" points="242.68,-333.58 247.41,-324.1 237.8,-328.57 242.68,-333.58"/>
</g>
<!-- else -->
<g id="node11" class="node">
<title>else</title>
<text text-anchor="middle" x="339" y="-302.3" font-family="Times,serif" font-size="14.00">else</text>
</g>
<!-- root&#45;&gt;else -->
<g id="edge10" class="edge">
<title>root&#45;&gt;else</title>
<path fill="none" stroke="black" d="M228.72,-359.88C251.17,-349.11 280.06,-335.26 302.64,-324.43"/>
<polygon fill="black" stroke="black" points="304.39,-327.48 311.89,-320 301.36,-321.16 304.39,-327.48"/>
</g>
<!-- b1r -->
<g id="node3" class="node">
<title>b1r</title>
<text text-anchor="middle" x="27" y="-230.3" font-family="Times,serif" font-size="14.00" fill="blue">r</text>
</g>
<!-- b1&#45;&gt;b1r -->
<g id="edge2" class="edge">
<title>b1&#45;&gt;b1r</title>
<path fill="none" stroke="black" d="M37.54,-287.7C36,-279.98 34.14,-270.71 32.42,-262.11"/>
<polygon fill="black" stroke="black" points="35.81,-261.22 30.42,-252.1 28.95,-262.6 35.81,-261.22"/>
</g>
<!-- b2 -->
<g id="node6" class="node">
<title>b2</title>
<text text-anchor="middle" x="104" y="-230.3" font-family="Times,serif" font-size="14.00">(= r 1)</text>
</g>
<!-- or&#45;&gt;b2 -->
<g id="edge5" class="edge">
<title>or&#45;&gt;b2</title>
<path fill="none" stroke="black" d="M171,-287.7C159.79,-278.88 146,-268.03 133.85,-258.47"/>
<polygon fill="black" stroke="black" points="135.77,-255.54 125.75,-252.1 131.44,-261.04 135.77,-255.54"/>
</g>
<!-- b3 -->
<g id="node8" class="node">
<title>b3</title>
<text text-anchor="middle" x="205" y="-230.3" font-family="Times,serif" font-size="14.00">(= r (&#45; m 1))</text>
</g>
<!-- or&#45;&gt;b3 -->
<g id="edge7" class="edge">
<title>or&#45;&gt;b3</title>
<path fill="none" stroke="black" d="M195.97,-287.7C197.29,-279.98 198.88,-270.71 200.35,-262.11"/>
<polygon fill="black" stroke="black" points="203.83,-262.55 202.07,-252.1 196.93,-261.37 203.83,-262.55"/>
</g>
<!-- b2r -->
<g id="node7" class="node">
<title>b2r</title>
<text text-anchor="middle" x="104" y="-158.3" font-family="Times,serif" font-size="14.00" fill="blue">r</text>
</g>
<!-- b2&#45;&gt;b2r -->
<g id="edge6" class="edge">
<title>b2&#45;&gt;b2r</title>
<path fill="none" stroke="black" d="M104,-215.7C104,-207.98 104,-198.71 104,-190.11"/>
<polygon fill="black" stroke="black" points="107.5,-190.1 104,-180.1 100.5,-190.1 107.5,-190.1"/>
</g>
<!-- b3r -->
<g id="node9" class="node">
<title>b3r</title>
<text text-anchor="middle" x="205" y="-158.3" font-family="Times,serif" font-size="14.00" fill="blue">r</text>
</g>
<!-- b3&#45;&gt;b3r -->
<g id="edge8" class="edge">
<title>b3&#45;&gt;b3r</title>
<path fill="none" stroke="black" d="M205,-215.7C205,-207.98 205,-198.71 205,-190.11"/>
<polygon fill="black" stroke="black" points="208.5,-190.1 205,-180.1 201.5,-190.1 208.5,-190.1"/>
</g>
<!-- eb -->
<g id="node12" class="node">
<title>eb</title>
<text text-anchor="middle" x="327" y="-230.3" font-family="Times,serif" font-size="14.00">(= square 1)</text>
</g>
<!-- else&#45;&gt;eb -->
<g id="edge11" class="edge">
<title>else&#45;&gt;eb</title>
<path fill="none" stroke="black" d="M336.03,-287.7C334.71,-279.98 333.12,-270.71 331.65,-262.11"/>
<polygon fill="black" stroke="black" points="335.07,-261.37 329.93,-252.1 328.17,-262.55 335.07,-261.37"/>
</g>
<!-- rem -->
<g id="node14" class="node">
<title>rem</title>
<text text-anchor="middle" x="444" y="-230.3" font-family="Times,serif" font-size="14.00">remainder</text>
</g>
<!-- else&#45;&gt;rem -->
<g id="edge15" class="edge">
<title>else&#45;&gt;rem</title>
<path fill="none" stroke="black" d="M364.69,-287.88C378.29,-278.81 395.17,-267.55 409.86,-257.76"/>
<polygon fill="black" stroke="black" points="411.84,-260.65 418.22,-252.19 407.95,-254.82 411.84,-260.65"/>
</g>
<!-- bz -->
<g id="node17" class="node">
<title>bz</title>
<text text-anchor="middle" x="535" y="-230.3" font-family="Times,serif" font-size="14.00" fill="green">0</text>
</g>
<!-- else&#45;&gt;bz -->
<g id="edge18" class="edge">
<title>else&#45;&gt;bz</title>
<path fill="none" stroke="black" d="M366.25,-297.08C396.51,-288.04 446.87,-272.3 498.07,-252.15"/>
<polygon fill="black" stroke="black" points="499.64,-255.3 507.63,-248.34 497.05,-248.79 499.64,-255.3"/>
</g>
<!-- remainder -->
<g id="node18" class="node">
<title>remainder</title>
<text text-anchor="middle" x="327" y="-158.3" font-family="Times,serif" font-size="14.00">remainder</text>
</g>
<!-- eb&#45;&gt;remainder -->
<g id="edge12" class="edge">
<title>eb&#45;&gt;remainder</title>
<path fill="none" stroke="black" d="M327,-215.7C327,-207.98 327,-198.71 327,-190.11"/>
<polygon fill="black" stroke="black" points="330.5,-190.1 327,-180.1 323.5,-190.1 330.5,-190.1"/>
</g>
<!-- ebr -->
<g id="node13" class="node">
<title>ebr</title>
<text text-anchor="middle" x="327" y="-14.3" font-family="Times,serif" font-size="14.00" fill="blue">r</text>
</g>
<!-- ebn -->
<g id="node15" class="node">
<title>ebn</title>
<text text-anchor="middle" x="444" y="-158.3" font-family="Times,serif" font-size="14.00" fill="orange">square</text>
</g>
<!-- rem&#45;&gt;ebn -->
<g id="edge16" class="edge">
<title>rem&#45;&gt;ebn</title>
<path fill="none" stroke="black" d="M444,-215.7C444,-207.98 444,-198.71 444,-190.11"/>
<polygon fill="black" stroke="black" points="447.5,-190.1 444,-180.1 440.5,-190.1 447.5,-190.1"/>
</g>
<!-- ebnr -->
<g id="node16" class="node">
<title>ebnr</title>
<text text-anchor="middle" x="444" y="-86.3" font-family="Times,serif" font-size="14.00" fill="red">r</text>
</g>
<!-- ebn&#45;&gt;ebnr -->
<g id="edge17" class="edge">
<title>ebn&#45;&gt;ebnr</title>
<path fill="none" stroke="black" d="M444,-143.7C444,-135.98 444,-126.71 444,-118.11"/>
<polygon fill="black" stroke="black" points="447.5,-118.1 444,-108.1 440.5,-118.1 447.5,-118.1"/>
</g>
<!-- square -->
<g id="node19" class="node">
<title>square</title>
<text text-anchor="middle" x="327" y="-86.3" font-family="Times,serif" font-size="14.00" fill="orange">square</text>
</g>
<!-- remainder&#45;&gt;square -->
<g id="edge13" class="edge">
<title>remainder&#45;&gt;square</title>
<path fill="none" stroke="black" d="M327,-143.7C327,-135.98 327,-126.71 327,-118.11"/>
<polygon fill="black" stroke="black" points="330.5,-118.1 327,-108.1 323.5,-118.1 330.5,-118.1"/>
</g>
<!-- square&#45;&gt;ebr -->
<g id="edge14" class="edge">
<title>square&#45;&gt;ebr</title>
<path fill="none" stroke="black" d="M327,-71.7C327,-63.98 327,-54.71 327,-46.11"/>
<polygon fill="black" stroke="black" points="330.5,-46.1 327,-36.1 323.5,-46.1 330.5,-46.1"/>
</g>
</g>
</svg>
