<?xml version="1.0" encoding="UTF-8" standalone="no"?>
<!DOCTYPE svg PUBLIC "-//W3C//DTD SVG 1.1//EN"
 "http://www.w3.org/Graphics/SVG/1.1/DTD/svg11.dtd">
<!-- Generated by graphviz version 2.43.0 (0)
 -->
<!-- Title: binaryTree Pages: 1 -->
<svg width="577pt" height="404pt"
 viewBox="0.00 0.00 577.00 404.00" xmlns="http://www.w3.org/2000/svg" xmlns:xlink="http://www.w3.org/1999/xlink">
<g id="graph0" class="graph" transform="scale(1 1) rotate(0) translate(4 400)">
<title>binaryTree</title>
<polygon fill="white" stroke="transparent" points="-4,4 -4,-400 573,-400 573,4 -4,4"/>
<!-- root -->
<g id="node1" class="node">
<title>root</title>
<text text-anchor="middle" x="181" y="-374.3" font-family="Times,serif" font-size="14.00">(get&#45;result r)</text>
</g>
<!-- b1 -->
<g id="node2" class="node">
<title>b1</title>
<text text-anchor="middle" x="32" y="-302.3" font-family="Times,serif" font-size="14.00">(= r 0)</text>
</g>
<!-- root&#45;&gt;b1 -->
<g id="edge1" class="edge">
<title>root&#45;&gt;b1</title>
<path fill="none" stroke="black" d="M144.55,-359.88C122.99,-349.75 95.62,-336.89 73.27,-326.39"/>
<polygon fill="black" stroke="black" points="74.56,-323.13 64.03,-322.05 71.59,-329.47 74.56,-323.13"/>
</g>
<!-- b1nr -->
<g id="node4" class="node">
<title>b1nr</title>
<text text-anchor="middle" x="109" y="-302.3" font-family="Times,serif" font-size="14.00" fill="red">r</text>
</g>
<!-- root&#45;&gt;b1nr -->
<g id="edge3" class="edge">
<title>root&#45;&gt;b1nr</title>
<path fill="none" stroke="black" d="M163.2,-359.7C154.4,-351.14 143.62,-340.66 134,-331.3"/>
<polygon fill="black" stroke="black" points="136.2,-328.57 126.59,-324.1 131.32,-333.58 136.2,-328.57"/>
</g>
<!-- or -->
<g id="node5" class="node">
<title>or</title>
<text text-anchor="middle" x="181" y="-302.3" font-family="Times,serif" font-size="14.00">or</text>
</g>
<!-- root&#45;&gt;or -->
<g id="edge4" class="edge">
<title>root&#45;&gt;or</title>
<path fill="none" stroke="black" d="M181,-359.7C181,-351.98 181,-342.71 181,-334.11"/>
<polygon fill="black" stroke="black" points="184.5,-334.1 181,-324.1 177.5,-334.1 184.5,-334.1"/>
</g>
<!-- onr -->
<g id="node10" class="node">
<title>onr</title>
<text text-anchor="middle" x="253" y="-302.3" font-family="Times,serif" font-size="14.00" fill="red">r</text>
</g>
<!-- root&#45;&gt;onr -->
<g id="edge9" class="edge">
<title>root&#45;&gt;onr</title>
<path fill="none" stroke="black" d="M198.8,-359.7C207.6,-351.14 218.38,-340.66 228,-331.3"/>
<polygon fill="black" stroke="black" points="230.68,-333.58 235.41,-324.1 225.8,-328.57 230.68,-333.58"/>
</g>
<!-- else -->
<g id="node11" class="node">
<title>else</title>
<text text-anchor="middle" x="325" y="-302.3" font-family="Times,serif" font-size="14.00">else</text>
</g>
<!-- root&#45;&gt;else -->
<g id="edge10" class="edge">
<title>root&#45;&gt;else</title>
<path fill="none" stroke="black" d="M216.23,-359.88C238.23,-349.18 266.49,-335.44 288.7,-324.65"/>
<polygon fill="black" stroke="black" points="290.34,-327.74 297.8,-320.22 287.28,-321.44 290.34,-327.74"/>
</g>
<!-- b1r -->
<g id="node3" class="node">
<title>b1r</title>
<text text-anchor="middle" x="32" y="-230.3" font-family="Times,serif" font-size="14.00" fill="blue">r</text>
</g>
<!-- b1&#45;&gt;b1r -->
<g id="edge2" class="edge">
<title>b1&#45;&gt;b1r</title>
<path fill="none" stroke="black" d="M32,-287.7C32,-279.98 32,-270.71 32,-262.11"/>
<polygon fill="black" stroke="black" points="35.5,-262.1 32,-252.1 28.5,-262.1 35.5,-262.1"/>
</g>
<!-- b2 -->
<g id="node6" class="node">
<title>b2</title>
<text text-anchor="middle" x="118" y="-230.3" font-family="Times,serif" font-size="14.00">(= r 1)</text>
</g>
<!-- or&#45;&gt;b2 -->
<g id="edge5" class="edge">
<title>or&#45;&gt;b2</title>
<path fill="none" stroke="black" d="M165.43,-287.7C157.8,-279.22 148.48,-268.86 140.12,-259.58"/>
<polygon fill="black" stroke="black" points="142.69,-257.2 133.39,-252.1 137.48,-261.88 142.69,-257.2"/>
</g>
<!-- b3 -->
<g id="node8" class="node">
<title>b3</title>
<text text-anchor="middle" x="219" y="-230.3" font-family="Times,serif" font-size="14.00">(= r (&#45; m 1))</text>
</g>
<!-- or&#45;&gt;b3 -->
<g id="edge7" class="edge">
<title>or&#45;&gt;b3</title>
<path fill="none" stroke="black" d="M190.39,-287.7C194.76,-279.64 200.06,-269.89 204.9,-260.98"/>
<polygon fill="black" stroke="black" points="208.02,-262.56 209.71,-252.1 201.87,-259.22 208.02,-262.56"/>
</g>
<!-- b2r -->
<g id="node7" class="node">
<title>b2r</title>
<text text-anchor="middle" x="118" y="-158.3" font-family="Times,serif" font-size="14.00" fill="blue">r</text>
</g>
<!-- b2&#45;&gt;b2r -->
<g id="edge6" class="edge">
<title>b2&#45;&gt;b2r</title>
<path fill="none" stroke="black" d="M118,-215.7C118,-207.98 118,-198.71 118,-190.11"/>
<polygon fill="black" stroke="black" points="121.5,-190.1 118,-180.1 114.5,-190.1 121.5,-190.1"/>
</g>
<!-- b3r -->
<g id="node9" class="node">
<title>b3r</title>
<text text-anchor="middle" x="219" y="-158.3" font-family="Times,serif" font-size="14.00" fill="blue">r</text>
</g>
<!-- b3&#45;&gt;b3r -->
<g id="edge8" class="edge">
<title>b3&#45;&gt;b3r</title>
<path fill="none" stroke="black" d="M219,-215.7C219,-207.98 219,-198.71 219,-190.11"/>
<polygon fill="black" stroke="black" points="222.5,-190.1 219,-180.1 215.5,-190.1 222.5,-190.1"/>
</g>
<!-- eb -->
<g id="node12" class="node">
<title>eb</title>
<text text-anchor="middle" x="320" y="-230.3" font-family="Times,serif" font-size="14.00">test</text>
</g>
<!-- else&#45;&gt;eb -->
<g id="edge11" class="edge">
<title>else&#45;&gt;eb</title>
<path fill="none" stroke="black" d="M323.76,-287.7C323.21,-279.98 322.55,-270.71 321.94,-262.11"/>
<polygon fill="black" stroke="black" points="325.43,-261.83 321.22,-252.1 318.44,-262.33 325.43,-261.83"/>
</g>
<!-- bz -->
<g id="node14" class="node">
<title>bz</title>
<text text-anchor="middle" x="392" y="-230.3" font-family="Times,serif" font-size="14.00" fill="green">0</text>
</g>
<!-- else&#45;&gt;bz -->
<g id="edge15" class="edge">
<title>else&#45;&gt;bz</title>
<path fill="none" stroke="black" d="M341.56,-287.7C349.68,-279.22 359.59,-268.86 368.47,-259.58"/>
<polygon fill="black" stroke="black" points="371.24,-261.75 375.63,-252.1 366.19,-256.91 371.24,-261.75"/>
</g>
<!-- remainder -->
<g id="node16" class="node">
<title>remainder</title>
<text text-anchor="middle" x="320" y="-158.3" font-family="Times,serif" font-size="14.00">remainder</text>
</g>
<!-- eb&#45;&gt;remainder -->
<g id="edge12" class="edge">
<title>eb&#45;&gt;remainder</title>
<path fill="none" stroke="black" d="M320,-215.7C320,-207.98 320,-198.71 320,-190.11"/>
<polygon fill="black" stroke="black" points="323.5,-190.1 320,-180.1 316.5,-190.1 323.5,-190.1"/>
</g>
<!-- ebr -->
<g id="node13" class="node">
<title>ebr</title>
<text text-anchor="middle" x="320" y="-14.3" font-family="Times,serif" font-size="14.00" fill="purple">r</text>
</g>
<!-- square -->
<g id="node15" class="node">
<title>square</title>
<text text-anchor="middle" x="320" y="-86.3" font-family="Times,serif" font-size="14.00" fill="orange">square</text>
</g>
<!-- square&#45;&gt;ebr -->
<g id="edge14" class="edge">
<title>square&#45;&gt;ebr</title>
<path fill="none" stroke="black" d="M320,-71.7C320,-63.98 320,-54.71 320,-46.11"/>
<polygon fill="black" stroke="black" points="323.5,-46.1 320,-36.1 316.5,-46.1 323.5,-46.1"/>
</g>
<!-- remainder&#45;&gt;square -->
<g id="edge13" class="edge">
<title>remainder&#45;&gt;square</title>
<path fill="none" stroke="black" d="M320,-143.7C320,-135.98 320,-126.71 320,-118.11"/>
<polygon fill="black" stroke="black" points="323.5,-118.1 320,-108.1 316.5,-118.1 323.5,-118.1"/>
</g>
<!-- rt -->
<g id="node17" class="node">
<title>rt</title>
<text text-anchor="middle" x="503" y="-374.3" font-family="Times,serif" font-size="14.00">(test x)</text>
</g>
<!-- l -->
<g id="node18" class="node">
<title>l</title>
<text text-anchor="middle" x="464" y="-302.3" font-family="Times,serif" font-size="14.00">(= x 1)</text>
</g>
<!-- rt&#45;&gt;l -->
<g id="edge16" class="edge">
<title>rt&#45;&gt;l</title>
<path fill="none" stroke="black" d="M493.36,-359.7C488.87,-351.64 483.44,-341.89 478.48,-332.98"/>
<polygon fill="black" stroke="black" points="481.45,-331.14 473.53,-324.1 475.34,-334.54 481.45,-331.14"/>
</g>
<!-- r -->
<g id="node19" class="node">
<title>r</title>
<text text-anchor="middle" x="542" y="-302.3" font-family="Times,serif" font-size="14.00" fill="orange">x</text>
</g>
<!-- rt&#45;&gt;r -->
<g id="edge18" class="edge">
<title>rt&#45;&gt;r</title>
<path fill="none" stroke="black" d="M512.64,-359.7C517.13,-351.64 522.56,-341.89 527.52,-332.98"/>
<polygon fill="black" stroke="black" points="530.66,-334.54 532.47,-324.1 524.55,-331.14 530.66,-334.54"/>
</g>
<!-- ls -->
<g id="node20" class="node">
<title>ls</title>
<text text-anchor="middle" x="464" y="-230.3" font-family="Times,serif" font-size="14.00" fill="orange">x</text>
</g>
<!-- l&#45;&gt;ls -->
<g id="edge17" class="edge">
<title>l&#45;&gt;ls</title>
<path fill="none" stroke="black" d="M464,-287.7C464,-279.98 464,-270.71 464,-262.11"/>
<polygon fill="black" stroke="black" points="467.5,-262.1 464,-252.1 460.5,-262.1 467.5,-262.1"/>
</g>
</g>
</svg>
