<?xml version="1.0" encoding="UTF-8" standalone="no"?>
<!DOCTYPE svg PUBLIC "-//W3C//DTD SVG 1.1//EN"
 "http://www.w3.org/Graphics/SVG/1.1/DTD/svg11.dtd">
<!-- Generated by graphviz version 2.43.0 (0)
 -->
<!-- Title: cube Pages: 1 -->
<svg width="287pt" height="204pt"
 viewBox="0.00 0.00 286.50 204.00" xmlns="http://www.w3.org/2000/svg" xmlns:xlink="http://www.w3.org/1999/xlink">
<g id="graph0" class="graph" transform="scale(1 1) rotate(0) translate(4 200)">
<title>cube</title>
<!-- sysnet -->
<g id="node1" class="node">
<title>sysnet</title>
<polygon fill="pink" stroke="pink" points="185,-196 123,-196 123,-160 185,-160 185,-196"/>
<text text-anchor="middle" x="154" y="-174.3" font-family="Ubuntu Regular" font-size="14.00">sys&#45;net</text>
</g>
<!-- sysfirewall -->
<g id="node2" class="node">
<title>sysfirewall</title>
<polygon fill="lightgreen" stroke="lightgreen" points="198,-124 110,-124 110,-88 198,-88 198,-124"/>
<text text-anchor="middle" x="154" y="-102.3" font-family="Ubuntu Regular" font-size="14.00">sys&#45;firewall</text>
</g>
<!-- sysnet&#45;&gt;sysfirewall -->
<g id="edge1" class="edge">
<title>sysnet&#45;&gt;sysfirewall</title>
<path fill="none" stroke="pink" d="M154,-159.7C154,-148.85 154,-134.92 154,-124.1"/>
</g>
<!-- sysproxy -->
<g id="node3" class="node">
<title>sysproxy</title>
<polygon fill="lightgreen" stroke="lightgreen" points="84,-44 8,-44 8,-8 84,-8 84,-44"/>
<polygon fill="none" stroke="lightgreen" points="88,-48 4,-48 4,-4 88,-4 88,-48"/>
<polygon fill="none" stroke="lightgreen" points="92,-52 0,-52 0,0 92,0 92,-52"/>
<text text-anchor="middle" x="46" y="-22.3" font-family="Ubuntu Regular" font-size="14.00">sys&#45;proxy</text>
</g>
<!-- sysfirewall&#45;&gt;sysproxy -->
<g id="edge2" class="edge">
<title>sysfirewall&#45;&gt;sysproxy</title>
<path fill="none" stroke="lightgreen" d="M130.3,-87.88C115.77,-77.39 96.91,-63.77 80.72,-52.07"/>
</g>
<!-- syswhonix -->
<g id="node4" class="node">
<title>syswhonix</title>
<polygon fill="lightgray" stroke="lightgray" points="197.5,-44 110.5,-44 110.5,-8 197.5,-8 197.5,-44"/>
<text text-anchor="middle" x="154" y="-22.3" font-family="Ubuntu Regular" font-size="14.00">sys&#45;whonix</text>
</g>
<!-- sysfirewall&#45;&gt;syswhonix -->
<g id="edge3" class="edge">
<title>sysfirewall&#45;&gt;syswhonix</title>
<path fill="none" stroke="lightgreen" d="M154,-87.69C154,-74.76 154,-57.18 154,-44.26"/>
</g>
<!-- appvm -->
<g id="node5" class="node">
<title>appvm</title>
<polygon fill="lightyellow" stroke="lightyellow" points="278.5,-44 215.5,-44 215.5,-8 278.5,-8 278.5,-44"/>
<text text-anchor="middle" x="247" y="-22.3" font-family="Ubuntu Regular" font-size="14.00">AppVM</text>
</g>
<!-- sysfirewall&#45;&gt;appvm -->
<g id="edge4" class="edge">
<title>sysfirewall&#45;&gt;appvm</title>
<path fill="none" stroke="lightgreen" d="M174.64,-87.69C190.05,-74.76 211.02,-57.18 226.42,-44.26"/>
</g>
</g>
</svg>
